# xmcd
#
# Track frame offsets:
#	150
#	19047
#	34352
#	47075
#	61325
#	77320
#	93610
#	108550
#	123552
#	139315
#	155997
#	170412
#	185997
#	202500
#	220305
#	238762
#	256335
#	275430
#	291877
#
# Disc length: 4102 seconds
#
# Revision: 1
# Processed by: cddbd v1.5.2PL0 Copyright (c) Steve Scherf et al.
# Submitted via: audiograbber 1.82.02
#
DISCID=1f100413
DTITLE=Alabama - THMP018
DYEAR=1900
DGENRE=Karaoke
TTITLE0=Small stuff
TTITLE1=God must have spent a little more time on you
TTITLE2=Keepin' up
TTITLE3=How do you fall in love
TTITLE4=Can't keep a good man down
TTITLE5=Close enough to perfect
TTITLE6=Forever's as far as I go
TTITLE7=Forty hour week
TTITLE8=If I had you
TTITLE9=If you're gonna play in Texas
TTITLE10=Jukebox in my mind
TTITLE11=Love in the first degree
TTITLE12=Old flame
TTITLE13=Roll on eighteen wheeler
TTITLE14=Take me down
TTITLE15=The cheap seats
TTITLE16=There's no way
TTITLE17=When we make love
TTITLE18=Why lady why
EXTD=
EXTT0=
EXTT1=
EXTT2=
EXTT3=
EXTT4=
EXTT5=
EXTT6=
EXTT7=
EXTT8=
EXTT9=
EXTT10=
EXTT11=
EXTT12=
EXTT13=
EXTT14=
EXTT15=
EXTT16=
EXTT17=
EXTT18=
PLAYORDER=
